<svg width="138" height="138" viewBox="0 0 138 138" fill="none" xmlns="http://www.w3.org/2000/svg">
<path d="M44.3008 26.2416L93.4301 26.1039L117.876 68.72L93.186 111.484L44.0566 111.621L19.6113 69.0051L44.3008 26.2416Z" stroke="#02DFEE" stroke-width="2"/>
<path d="M57.6189 68.6231L63.0963 59.0742L74.1047 59.1051L79.6412 68.6946L74.1637 78.2435L63.1554 78.2126L57.6189 68.6231Z" stroke="#02DFEE" stroke-width="2"/>
<path d="M69.4928 27.5363L72.9373 56.016C73.1774 58.0003 75.2543 59.1995 77.0928 58.4151L103.479 47.1584C104.566 46.6947 105.417 48.1684 104.472 48.8779L81.5302 66.1008C79.9316 67.3009 79.9317 69.6991 81.5302 70.8992L104.472 88.1221C105.417 88.8316 104.566 90.3053 103.479 89.8416L77.0928 78.5849C75.2543 77.8005 73.1774 78.9997 72.9373 80.984L69.4928 109.464C69.3509 110.637 67.6491 110.637 67.5072 109.464L64.0627 80.984C63.8226 78.9997 61.7457 77.8005 59.9072 78.5849L33.5208 89.8416C32.4338 90.3053 31.5829 88.8316 32.528 88.1221L55.4698 70.8992C57.0684 69.6991 57.0683 67.3009 55.4698 66.1008L32.528 48.8779C31.583 48.1684 32.4338 46.6947 33.5208 47.1584L59.9072 58.4151C61.7457 59.1995 63.8226 58.0003 64.0627 56.016L67.5072 27.5363C67.6491 26.3631 69.3509 26.3631 69.4928 27.5363Z" stroke="#02DFEE" stroke-width="2"/>
</svg>
