<svg width="100" height="105" viewBox="0 0 100 105" fill="none" xmlns="http://www.w3.org/2000/svg">
<path d="M4.5 57.5C4.5 82.629 24.871 103 50 103C75.129 103 95.5 82.629 95.5 57.5C95.5 32.371 75.129 12 50 12C24.871 12 4.5 32.371 4.5 57.5Z" stroke="#02DFEE" stroke-width="3" stroke-linecap="square"/>
<path d="M7 42.5L2 3L36 14" stroke="#02DFEE" stroke-width="3"/>
<path d="M92.5 41.5L97.5 3L63.5 14" stroke="#02DFEE" stroke-width="3"/>
<path d="M16.5 64C16.5 68.9706 20.5294 73 25.5 73C30.4706 73 34.5 68.9706 34.5 64C34.5 59.0294 30.4706 55 25.5 55C20.5294 55 16.5 59.0294 16.5 64Z" stroke="#02DFEE" stroke-width="3" stroke-linecap="square"/>
<path d="M64.5 64C64.5 68.9706 68.5294 73 73.5 73C78.4706 73 82.5 68.9706 82.5 64C82.5 59.0294 78.4706 55 73.5 55C68.5294 55 64.5 59.0294 64.5 64Z" stroke="#02DFEE" stroke-width="3" stroke-linecap="square"/>
<path d="M39.5 91.5C39.5 92.8807 40.6193 94 42 94C43.3807 94 44.5 92.8807 44.5 91.5C44.5 90.1193 43.3807 89 42 89C40.6193 89 39.5 90.1193 39.5 91.5Z" stroke="#02DFEE" stroke-width="5" stroke-linecap="square"/>
<path d="M55.5 91.5C55.5 92.8807 56.6193 94 58 94C59.3807 94 60.5 92.8807 60.5 91.5C60.5 90.1193 59.3807 89 58 89C56.6193 89 55.5 90.1193 55.5 91.5Z" stroke="#02DFEE" stroke-width="5" stroke-linecap="square"/>
<path d="M27 96C27 96 30.172 85.1808 35 80.5C42.2201 73.5 50 74 50 74M50 74V12M50 74C50 74 58.9828 73.5 66 80.5C70.7022 85.1907 73.5 96 73.5 96" stroke="#02DFEE" stroke-width="3"/>
</svg>
