<svg width="102" height="102" viewBox="0 0 102 102" fill="none" xmlns="http://www.w3.org/2000/svg">
<path d="M1 51C1 78.6142 23.3858 101 51 101C78.6142 101 101 78.6142 101 51C101 23.3858 78.6142 1 51 1C23.3858 1 1 23.3858 1 51Z" stroke="#02DFEE" stroke-width="2" stroke-linecap="square"/>
<path d="M54 67.9999C64 66.4999 69.75 60 72 49.5M72 49.5C73.5 42.5 72 34.8903 61.5 35C55.9499 35.0579 50.5 38.4496 50.5 43.9999C50.5 49.9999 55.6944 54 61.5 54C65.5 54 68 53 72 49.5Z" stroke="#02DFEE" stroke-width="2"/>
<path d="M31 38L40.5 34V64.5" stroke="#02DFEE" stroke-width="2"/>
</svg>
