<svg width="132" height="114" viewBox="0 0 132 114" fill="none" xmlns="http://www.w3.org/2000/svg">
<path d="M22 76C22 95.8823 38.1178 112 58 112C77.8823 112 94 95.8823 94 76C94 56.1178 77.8823 40 58 40C38.1178 40 22 56.1178 22 76Z" stroke="#02DFEE" stroke-width="4" stroke-linecap="square"/>
<path d="M2 57C2 76.8823 18.1178 93 38 93C57.8823 93 74 76.8823 74 57C74 37.1178 57.8823 21 38 21C18.1178 21 2 37.1178 2 57Z" stroke="#02DFEE" stroke-width="4" stroke-linecap="square"/>
<path d="M22 38C22 57.8823 38.1178 74 58 74C77.8823 74 94 57.8823 94 38C94 18.1178 77.8823 2 58 2C38.1178 2 22 18.1178 22 38Z" stroke="#02DFEE" stroke-width="4" stroke-linecap="square"/>
<path d="M42 57C42 76.8823 58.1178 93 78 93C97.8823 93 114 76.8823 114 57C114 37.1178 97.8823 21 78 21C58.1178 21 42 37.1178 42 57Z" stroke="#02DFEE" stroke-width="4" stroke-linecap="square"/>
<line x1="132" y1="57" x2="90" y2="57" stroke="#02DFEE" stroke-width="4"/>
</svg>
