<svg width="104" height="110" viewBox="0 0 104 110" fill="none" xmlns="http://www.w3.org/2000/svg">
<path d="M24.6352 96.0051C27.1351 111.005 47.1351 109.005 51.6352 100.005V9.00515C45.6351 0.00518322 26.1352 -2.99484 26.1352 16.5051C10.6351 16.5051 8.13514 31.0052 13.6352 39.5052C-1.36482 46.5052 -3.86486 67.5052 18.1352 73.0052C5.13523 82.0052 13.1352 93.0052 24.6352 96.0051Z" stroke="#02DFEE" stroke-width="4"/>
<path d="M78.6353 96.0103C76.1353 111.01 56.1353 109.01 51.6353 100.01V9.01032C57.6353 0.0103483 77.1352 -2.98968 77.1352 16.5103C92.6353 16.5103 95.1353 31.0103 89.6353 39.5103C104.635 46.5103 107.135 67.5103 85.1352 73.0103C98.1352 82.0103 90.1352 93.0103 78.6353 96.0103Z" stroke="#02DFEE" stroke-width="4"/>
</svg>
