<svg width="102" height="102" viewBox="0 0 102 102" fill="none" xmlns="http://www.w3.org/2000/svg">
<path d="M1 51C1 78.6142 23.3858 101 51 101C78.6142 101 101 78.6142 101 51C101 23.3858 78.6142 1 51 1C23.3858 1 1 23.3858 1 51Z" stroke="#02DFEE" stroke-width="2" stroke-linecap="square"/>
<path d="M78 55V49C78 41.8203 72.1797 36 65 36C57.8203 36 52 41.8203 52 49V55C52 62.1797 57.8203 68 65 68C72.1797 68 78 62.1797 78 55Z" stroke="#02DFEE" stroke-width="2" stroke-linecap="square"/>
<path d="M44 66C44 66 21 66 23.5 66C24.5 66 42 51.5001 42 43C42 34.5 30 34.5 24 38" stroke="#02DFEE" stroke-width="2"/>
</svg>
