<svg width="131" height="96" viewBox="0 0 131 96" fill="none" xmlns="http://www.w3.org/2000/svg">
<path d="M130 37H1V59H130V37Z" stroke="#02DFEE" stroke-width="2" stroke-linecap="square"/>
<path d="M18 48C18 73.9574 39.0426 95 65 95C90.9574 95 112 73.9574 112 48C112 22.0426 90.9574 1 65 1C39.0426 1 18 22.0426 18 48Z" stroke="#02DFEE" stroke-width="2" stroke-linecap="square"/>
<path d="M37 48C37 63.464 49.536 76 65 76C80.464 76 93 63.464 93 48C93 32.536 80.464 20 65 20C49.536 20 37 32.536 37 48Z" stroke="#02DFEE" stroke-width="2" stroke-linecap="square"/>
</svg>
