<svg width="150" height="150" viewBox="0 0 150 150" fill="none" xmlns="http://www.w3.org/2000/svg">
<rect x="0.5" y="0.5" width="149" height="149" stroke="black"/>
<path d="M139 67H10V89H139V67Z" stroke="#02DFEE" stroke-width="2" stroke-linecap="square"/>
<path d="M27 78C27 103.957 48.0426 125 74 125C99.9574 125 121 103.957 121 78C121 52.0426 99.9574 31 74 31C48.0426 31 27 52.0426 27 78Z" stroke="#02DFEE" stroke-width="2" stroke-linecap="square"/>
<path d="M46 78C46 93.464 58.536 106 74 106C89.464 106 102 93.464 102 78C102 62.536 89.464 50 74 50C58.536 50 46 62.536 46 78Z" stroke="#02DFEE" stroke-width="2" stroke-linecap="square"/>
</svg>
