<svg width="133" height="56" viewBox="0 0 133 56" fill="none" xmlns="http://www.w3.org/2000/svg">
<path d="M66.0895 26.5C56.8412 12.9413 48.5005 2.5 31.5895 2.5C15.9869 2.5 1.73367 14.9564 3.08954 30.5C4.34313 44.8711 17.1639 54 31.5895 54C48.0005 54 56.8877 43.9563 66.0895 30.5C67.1293 28.9794 67.5538 28.0233 68.5895 26.5C77.7916 12.9661 86.0005 2.00001 102.59 2C117.504 1.99999 130.354 13.5881 130.09 28.5C129.824 43.4323 116.524 54 101.59 54C85.0005 54 77.5081 43.5677 68.5895 30.5C67.5511 28.9785 67.1275 28.0218 66.0895 26.5Z" stroke="#02DFEE" stroke-width="4" stroke-linecap="square"/>
<path d="M66.0895 26.5C56.8412 12.9413 48.5005 2.5 31.5895 2.5C15.9869 2.5 1.73367 14.9564 3.08954 30.5C4.34313 44.8711 17.1639 54 31.5895 54C48.0005 54 56.8877 43.9563 66.0895 30.5C67.1293 28.9794 67.5538 28.0233 68.5895 26.5C77.7916 12.9661 86.0005 2.00001 102.59 2C117.504 1.99999 130.354 13.5881 130.09 28.5C129.824 43.4323 116.524 54 101.59 54C85.0005 54 77.5081 43.5677 68.5895 30.5C67.5511 28.9785 67.1275 28.0218 66.0895 26.5Z" stroke="black" stroke-opacity="0.2" stroke-width="4" stroke-linecap="square"/>
</svg>
