<svg width="102" height="102" viewBox="0 0 102 102" fill="none" xmlns="http://www.w3.org/2000/svg">
<path d="M1 51C1 78.6142 23.3858 101 51 101C78.6142 101 101 78.6142 101 51C101 23.3858 78.6142 1 51 1C23.3858 1 1 23.3858 1 51Z" stroke="#02DFEE" stroke-width="2" stroke-linecap="square"/>
<path d="M41 35C41 35 44.8895 32 50 32C55.1105 32 59.5522 35.8898 59.5 41C59.4574 45.1786 57.0214 48.364 53 49.5M53 49.5H48M53 49.5C57 50.5 60.5849 54.6192 60.5 59.5C60.4015 65.1617 55.5 69.5 50 69.5C45 69.5 41 66 41 66" stroke="#02DFEE" stroke-width="2"/>
</svg>
