<svg width="150" height="150" viewBox="0 0 150 150" fill="none" xmlns="http://www.w3.org/2000/svg">
<rect x="0.5" y="0.5" width="149" height="149" stroke="black"/>
<path d="M47.5 90.5C47.5 105.964 60.036 118.5 75.5 118.5C90.964 118.5 103.5 105.964 103.5 90.5C103.5 75.036 90.964 62.5 75.5 62.5C60.036 62.5 47.5 75.036 47.5 90.5Z" stroke="#02DFEE" stroke-width="4" stroke-linecap="square"/>
<path d="M61.5 91C61.5 98.4558 67.5442 104.5 75 104.5C82.4558 104.5 88.5 98.4558 88.5 91C88.5 83.5442 82.4558 77.5 75 77.5C67.5442 77.5 61.5 83.5442 61.5 91Z" stroke="#02DFEE" stroke-width="4" stroke-linecap="square"/>
<path d="M23 120.5L75.5 29L127.5 120.5H23Z" stroke="#02DFEE" stroke-width="4"/>
<line x1="75.5" y1="62.5" x2="75.5" y2="104.5" stroke="#02DFEE" stroke-width="4"/>
</svg>
