<svg width="112" height="99" viewBox="0 0 112 99" fill="none" xmlns="http://www.w3.org/2000/svg">
<path d="M28.5 66.5C28.5 81.964 41.036 94.5 56.5 94.5C71.964 94.5 84.5 81.964 84.5 66.5C84.5 51.036 71.964 38.5 56.5 38.5C41.036 38.5 28.5 51.036 28.5 66.5Z" stroke="#02DFEE" stroke-width="4" stroke-linecap="square"/>
<path d="M42.5 67C42.5 74.4558 48.5442 80.5 56 80.5C63.4558 80.5 69.5 74.4558 69.5 67C69.5 59.5442 63.4558 53.5 56 53.5C48.5442 53.5 42.5 59.5442 42.5 67Z" stroke="#02DFEE" stroke-width="4" stroke-linecap="square"/>
<path d="M4 96.5L56.5 5L108.5 96.5H4Z" stroke="#02DFEE" stroke-width="4"/>
<line x1="56.5" y1="38.5" x2="56.5" y2="80.5" stroke="#02DFEE" stroke-width="4"/>
</svg>
