<svg width="102" height="102" viewBox="0 0 102 102" fill="none" xmlns="http://www.w3.org/2000/svg">
<path d="M1 51C1 78.6142 23.3858 101 51 101C78.6142 101 101 78.6142 101 51C101 23.3858 78.6142 1 51 1C23.3858 1 1 23.3858 1 51Z" stroke="#02DFEE" stroke-width="2" stroke-linecap="square"/>
<path d="M26.5 41.5L36 37.5V68" stroke="#02DFEE" stroke-width="2"/>
<path d="M73 55V49C73 41.8203 67.1797 36 60 36C52.8203 36 47 41.8203 47 49V55C47 62.1797 52.8203 68 60 68C67.1797 68 73 62.1797 73 55Z" stroke="#02DFEE" stroke-width="2" stroke-linecap="square"/>
</svg>
