<svg width="150" height="150" viewBox="0 0 150 150" fill="none" xmlns="http://www.w3.org/2000/svg">
<path d="M25 75C25 102.614 47.3858 125 75 125C102.614 125 125 102.614 125 75C125 47.3858 102.614 25 75 25C47.3858 25 25 47.3858 25 75Z" stroke="#02DFEE" stroke-width="4" stroke-linecap="square"/>
<rect x="0.5" y="0.5" width="149" height="149" stroke="black"/>
<path d="M58 75C58 84.3888 65.6112 92 75 92C84.3888 92 92 84.3888 92 75C92 65.6112 84.3888 58 75 58C65.6112 58 58 65.6112 58 75Z" stroke="#02DFEE" stroke-width="4" stroke-linecap="square"/>
<line x1="75" y1="118" x2="75" y2="133" stroke="#02DFEE" stroke-width="4"/>
<line x1="75" y1="93" x2="75" y2="100" stroke="#02DFEE" stroke-width="4"/>
<line x1="75" y1="50" x2="75" y2="58" stroke="#02DFEE" stroke-width="4"/>
<line x1="75" y1="17" x2="75" y2="34" stroke="#02DFEE" stroke-width="4"/>
<line x1="118" y1="75" x2="133" y2="75" stroke="#02DFEE" stroke-width="4"/>
<line x1="17" y1="75" x2="32" y2="75" stroke="#02DFEE" stroke-width="4"/>
</svg>
