<svg width="125" height="125" viewBox="0 0 125 125" fill="none" xmlns="http://www.w3.org/2000/svg">
<path d="M17 61.5C17 86.0767 36.9233 106 61.5 106C86.0767 106 106 86.0767 106 61.5C106 36.9233 86.0767 17 61.5 17C36.9233 17 17 36.9233 17 61.5Z" stroke="#02DFEE" stroke-width="2" stroke-linecap="square"/>
<path d="M2 13.5C2 19.8513 7.14873 25 13.5 25C19.8513 25 25 19.8513 25 13.5C25 7.14873 19.8513 2 13.5 2C7.14873 2 2 7.14873 2 13.5Z" stroke="#02DFEE" stroke-width="4" stroke-linecap="square"/>
<path d="M100 13.5C100 19.8513 105.149 25 111.5 25C117.851 25 123 19.8513 123 13.5C123 7.14873 117.851 2 111.5 2C105.149 2 100 7.14873 100 13.5Z" stroke="#02DFEE" stroke-width="4" stroke-linecap="square"/>
<path d="M100 111.5C100 117.851 105.149 123 111.5 123C117.851 123 123 117.851 123 111.5C123 105.149 117.851 100 111.5 100C105.149 100 100 105.149 100 111.5Z" stroke="#02DFEE" stroke-width="4" stroke-linecap="square"/>
<path d="M2 111.5C2 117.851 7.14873 123 13.5 123C19.8513 123 25 117.851 25 111.5C25 105.149 19.8513 100 13.5 100C7.14873 100 2 105.149 2 111.5Z" stroke="#02DFEE" stroke-width="4" stroke-linecap="square"/>
<path d="M50 61.5C50 67.8513 55.1487 73 61.5 73C67.8513 73 73 67.8513 73 61.5C73 55.1487 67.8513 50 61.5 50C55.1487 50 50 55.1487 50 61.5Z" stroke="#02DFEE" stroke-width="4" stroke-linecap="square"/>
</svg>
