<svg width="115" height="121" viewBox="0 0 115 121" fill="none" xmlns="http://www.w3.org/2000/svg">
<path d="M28.5 47L22 43.5L28.5 43H33.5L28.5 47Z" stroke="#02DFEE" stroke-width="2" stroke-linecap="round"/>
<path d="M95.5 83.5V60H93.5V56H91.5V50V48.5H89.5V46.5H87.5V44.5H85.5V42.5H83.5V39H81.5V37H79.5V35H77.5V33H75.5V31H73.5V28.5H71.5L71 26.5L67.5 26L64.5 28L57 24.5L42 28L33 34.5L28.5 43L24.5 44H31.5L27.5 45.5" stroke="#02DFEE" stroke-width="2" stroke-linecap="round"/>
<path d="M35 14.5C35 14.5 43.5 10.5 48 6V9H54H55.5V7H61.5H64V5H66M66 5H70.5V3H73.5L74.5 2M66 5V7" stroke="#02DFEE" stroke-width="2" stroke-linecap="square"/>
<path d="M38.5 10.5C38.5 10.5 30.8537 14.8171 30 15.5C20.5 25.5 22 13 22 13L15.5 17V30.5" stroke="#02DFEE" stroke-width="2"/>
<path d="M37 15.5C37 15.5 28 12 29.5 20M29.5 20C20.5 25 20.5 16 20.5 16L17 18V19.5L19.5 18L20.5 20M29.5 20L28 19L25 20.5L23 20" stroke="#02DFEE" stroke-width="2"/>
<path d="M16 23C16 23 21.5 20.5 26 25.5C27 22.5 40.0303 16 40.0303 16" stroke="#02DFEE" stroke-width="2"/>
<path d="M16 21C16 21 20 19 25 22.5C24 25.5 39.5303 16 39.5303 16" stroke="#02DFEE" stroke-width="2"/>
<path d="M34 26.5C34 26.5 25.4828 30.4717 20.2041 34.6857C15.8075 38.1955 10 45 10 45" stroke="#02DFEE" stroke-linecap="round"/>
<path d="M11 44C11 44 8.11607 48.1892 6.5 51.5C4.68508 55.2182 3.5 59 3.5 59" stroke="#02DFEE" stroke-width="2" stroke-linecap="round"/>
<path d="M3 60L2.82034 70.6002C2.36954 97.1969 23.8062 119 50.4068 119V119C76.6918 119 98 97.6918 98 71.4068V70.5" stroke="#02DFEE" stroke-width="4" stroke-linecap="round"/>
<path d="M63.5 24.5L66 29.5L61 26.5L54.5 25.5L55.5 28.5L52 26.5H38V33H31.5V41.5H29.5V37.5H34V34.5H36.5V30.5H40V28.5H43.5" stroke="#02DFEE" stroke-width="2" stroke-linecap="square"/>
<path d="M40 25.5V20.5H42V17H35.5V15H42V13H39.5H38L47.5 9" stroke="#02DFEE" stroke-width="2" stroke-linecap="square"/>
<path d="M67 15H81V17H83V19H85V21H89V23H91.5V25H93.5V27H97.5V28.5H103V31H107V32.5H114.5H106V34H96.5V37V39H99V41.5H100.5H101V43.5H103V45.5H104.5H105.5V47.5V48.5H107.5V50H108.5" stroke="#02DFEE" stroke-width="2" stroke-linecap="square"/>
<path d="M98 69V57H95.5V54V53H93.5V46H91.5V43.5H89V42H87V39.5H85.5V37H84V34H82V32H80V30.5H77.5V28H74.5V26H62H59.5V24H41" stroke="#02DFEE" stroke-width="4" stroke-linecap="square"/>
<path d="M41 20H48.5H63V22M63 23V22M63 22H72H78V25H80.5V28H85V31H87V34H89.5V37V39.5H93H94.5V43H97V50H98V53.5H100V60" stroke="#02DFEE" stroke-width="4" stroke-linecap="square"/>
<path d="M104.5 64L99.5 55V46.5H104V44.5H99V43H97V40V37H92V35H95V33H91.5H90V32H104.5V31H101.5V30H96.5H90" stroke="#02DFEE" stroke-width="2" stroke-linecap="square"/>
<path d="M96 28.5H88V26.5H92V25H83.5V23H87.5V22H80.5V20.5H84V19H65.5V17H79.5" stroke="#02DFEE" stroke-width="2" stroke-linecap="square"/>
<path d="M64 17H44V15H65.5V12.5V11H69.5" stroke="#02DFEE" stroke-width="2" stroke-linecap="square"/>
<path d="M64 13H44V11H61.5V9H57" stroke="#02DFEE" stroke-width="2" stroke-linecap="square"/>
<path d="M38 71C38 77.6274 43.3726 83 50 83C56.6274 83 62 77.6274 62 71C62 64.3726 56.6274 59 50 59C43.3726 59 38 64.3726 38 71Z" stroke="#02DFEE" stroke-width="4" stroke-linecap="square"/>
<line x1="38.871" y1="51.5087" x2="60.871" y2="90.5087" stroke="#02DFEE" stroke-width="2"/>
</svg>
