<svg width="150" height="150" viewBox="0 0 150 150" fill="none" xmlns="http://www.w3.org/2000/svg">
<rect x="0.5" y="0.5" width="149" height="149" stroke="black"/>
<path d="M45.5 62L39 58.5L45.5 58H50.5L45.5 62Z" stroke="#02DFEE" stroke-width="2" stroke-linecap="round"/>
<path d="M112.5 98.5V75H110.5V71H108.5V65V63.5H106.5V61.5H104.5V59.5H102.5V57.5H100.5V54H98.5V52H96.5V50H94.5V48H92.5V46H90.5V43.5H88.5L88 41.5L84.5 41L81.5 43L74 39.5L59 43L50 49.5L45.5 58L41.5 59H48.5L44.5 60.5" stroke="#02DFEE" stroke-width="2" stroke-linecap="round"/>
<path d="M52 29.5C52 29.5 60.5 25.5 65 21V24H71H72.5V22H78.5H81V20H83M83 20H87.5V18H90.5L91.5 17M83 20V22" stroke="#02DFEE" stroke-width="2" stroke-linecap="square"/>
<path d="M55.5 25.5C55.5 25.5 47.8537 29.8171 47 30.5C37.5 40.5 39 28 39 28L32.5 32V45.5" stroke="#02DFEE" stroke-width="2"/>
<path d="M54 30.5C54 30.5 45 27 46.5 35M46.5 35C37.5 40 37.5 31 37.5 31L34 33V34.5L36.5 33L37.5 35M46.5 35L45 34L42 35.5L40 35" stroke="#02DFEE" stroke-width="2"/>
<path d="M33 38C33 38 38.5 35.5 43 40.5C44 37.5 57.0303 31 57.0303 31" stroke="#02DFEE" stroke-width="2"/>
<path d="M33 36C33 36 37 34 42 37.5C41 40.5 56.5303 31 56.5303 31" stroke="#02DFEE" stroke-width="2"/>
<path d="M51 41.5C51 41.5 42.4828 45.4717 37.2041 49.6857C32.8075 53.1955 27 60 27 60" stroke="#02DFEE" stroke-linecap="round"/>
<path d="M28 59C28 59 25.1161 63.1892 23.5 66.5C21.6851 70.2182 20.5 74 20.5 74" stroke="#02DFEE" stroke-width="2" stroke-linecap="round"/>
<path d="M20 75L19.8203 85.6002C19.3695 112.197 40.8062 134 67.4068 134V134C93.6918 134 115 112.692 115 86.4068V85.5" stroke="#02DFEE" stroke-width="4" stroke-linecap="round"/>
<path d="M80.5 39.5L83 44.5L78 41.5L71.5 40.5L72.5 43.5L69 41.5H55V48H48.5V56.5H46.5V52.5H51V49.5H53.5V45.5H57V43.5H60.5" stroke="#02DFEE" stroke-width="2" stroke-linecap="square"/>
<path d="M57 40.5V35.5H59V32H52.5V30H59V28H56.5H55L64.5 24" stroke="#02DFEE" stroke-width="2" stroke-linecap="square"/>
<path d="M84 30H98V32H100V34H102V36H106V38H108.5V40H110.5V42H114.5V43.5H120V46H124V47.5H131.5H123V49H113.5V52V54H116V56.5H117.5H118V58.5H120V60.5H121.5H122.5V62.5V63.5H124.5V65H125.5" stroke="#02DFEE" stroke-width="2" stroke-linecap="square"/>
<path d="M115 84V72H112.5V69V68H110.5V61H108.5V58.5H106V57H104V54.5H102.5V52H101V49H99V47H97V45.5H94.5V43H91.5V41H79H76.5V39H58" stroke="#02DFEE" stroke-width="4" stroke-linecap="square"/>
<path d="M58 35H65.5H80V37M80 38V37M80 37H89H95V40H97.5V43H102V46H104V49H106.5V52V54.5H110H111.5V58H114V65H115V68.5H117V75" stroke="#02DFEE" stroke-width="4" stroke-linecap="square"/>
<path d="M121.5 79L116.5 70V61.5H121V59.5H116V58H114V55V52H109V50H112V48H108.5H107V47H121.5V46H118.5V45H113.5H107" stroke="#02DFEE" stroke-width="2" stroke-linecap="square"/>
<path d="M113 43.5H105V41.5H109V40H100.5V38H104.5V37H97.5V35.5H101V34H82.5V32H96.5" stroke="#02DFEE" stroke-width="2" stroke-linecap="square"/>
<path d="M81 32H61V30H82.5V27.5V26H86.5" stroke="#02DFEE" stroke-width="2" stroke-linecap="square"/>
<path d="M81 28H61V26H78.5V24H74" stroke="#02DFEE" stroke-width="2" stroke-linecap="square"/>
<path d="M55 86C55 92.6274 60.3726 98 67 98C73.6274 98 79 92.6274 79 86C79 79.3726 73.6274 74 67 74C60.3726 74 55 79.3726 55 86Z" stroke="#02DFEE" stroke-width="4" stroke-linecap="square"/>
<line x1="55.871" y1="66.5087" x2="77.871" y2="105.509" stroke="#02DFEE" stroke-width="2"/>
</svg>
