<svg width="106" height="118" viewBox="0 0 106 118" fill="none" xmlns="http://www.w3.org/2000/svg">
<path d="M2 65C2 93.1665 24.8335 116 53 116C81.1665 116 104 93.1665 104 65C104 36.8335 81.1665 14 53 14C24.8335 14 2 36.8335 2 65Z" stroke="#02DFEE" stroke-width="4" stroke-linecap="square"/>
<path d="M21 65C21 82.6731 35.3269 97 53 97C70.6731 97 85 82.6731 85 65C85 47.3269 70.6731 33 53 33C35.3269 33 21 47.3269 21 65Z" stroke="#02DFEE" stroke-width="4" stroke-linecap="square"/>
<path d="M38 65C38 73.2843 44.7157 80 53 80C61.2843 80 68 73.2843 68 65C68 56.7157 61.2843 50 53 50C44.7157 50 38 56.7157 38 65Z" stroke="#02DFEE" stroke-width="4" stroke-linecap="square"/>
<line x1="53" x2="53" y2="80" stroke="#02DFEE" stroke-width="4"/>
</svg>
