<svg width="150" height="150" viewBox="0 0 150 150" fill="none" xmlns="http://www.w3.org/2000/svg">
<rect x="0.5" y="0.5" width="149" height="149" stroke="black"/>
<path d="M34 75C34 97.6437 52.3563 116 75 116C97.6437 116 116 97.6437 116 75C116 52.3563 97.6437 34 75 34C52.3563 34 34 52.3563 34 75Z" stroke="#02DFEE" stroke-width="2" stroke-linecap="square"/>
<path d="M78 72H72V78H78V72Z" stroke="#02DFEE" stroke-width="8" stroke-linecap="square"/>
<path d="M24 74H17V76H24V74Z" stroke="#02DFEE" stroke-width="3" stroke-linecap="square"/>
<path d="M132 74H125V76H132V74Z" stroke="#02DFEE" stroke-width="3" stroke-linecap="square"/>
<path d="M76 132L76 125L74 125L74 132L76 132Z" stroke="#02DFEE" stroke-width="3" stroke-linecap="square"/>
<path d="M76 24L76 17L74 17L74 24L76 24Z" stroke="#02DFEE" stroke-width="3" stroke-linecap="square"/>
<path d="M39.1447 38.4375L34.1949 33.4878L32.7807 34.902L37.7305 39.8518L39.1447 38.4375Z" stroke="#02DFEE" stroke-width="3" stroke-linecap="square"/>
<path d="M116.512 114.805L111.562 109.855L110.148 111.27L115.098 116.219L116.512 114.805Z" stroke="#02DFEE" stroke-width="3" stroke-linecap="square"/>
<path d="M34.902 116.219L39.8517 111.27L38.4375 109.855L33.4878 114.805L34.902 116.219Z" stroke="#02DFEE" stroke-width="3" stroke-linecap="square"/>
<path d="M112.27 39.8518L117.219 34.902L115.805 33.4878L110.855 38.4376L112.27 39.8518Z" stroke="#02DFEE" stroke-width="3" stroke-linecap="square"/>
<line x1="75" y1="81" x2="75" y2="124" stroke="#02DFEE" stroke-width="2"/>
<line x1="69" y1="75" x2="25" y2="75" stroke="#02DFEE" stroke-width="2"/>
<line x1="124" y1="75" x2="81" y2="75" stroke="#02DFEE" stroke-width="2"/>
<line x1="75" y1="25" x2="75" y2="69" stroke="#02DFEE" stroke-width="2"/>
<line x1="79.7426" y1="79.0355" x2="110.148" y2="109.441" stroke="#02DFEE" stroke-width="2"/>
<line x1="70.2573" y1="79.0355" x2="39.1446" y2="110.148" stroke="#02DFEE" stroke-width="2"/>
<line x1="110.743" y1="39.5502" x2="79.7427" y2="70.5502" stroke="#02DFEE" stroke-width="2"/>
<line x1="39.2573" y1="39.5503" x2="70.2573" y2="70.5503" stroke="#02DFEE" stroke-width="2"/>
</svg>
