<svg width="115" height="105" viewBox="0 0 115 105" fill="none" xmlns="http://www.w3.org/2000/svg">
<path d="M46 104.5C46 93.5 52 80.5 44 67C38.5 58.5 24 61 24 61M55.5 104.5C55.5 95.5 41.5 90.5432 53 60C62.5 49.0432 85 51.5 85 51.5M51 104.5C51 93 47.1808 80.5 50.6808 64C65.6808 44 53.5 27 53.5 27M48.5 101.5C48.5 85.5 48.3216 56.1995 55.3216 56.1995C60.4645 38.1995 40 44 40 44" stroke="#02DFEE" stroke-width="4"/>
<path d="M7 30C7 32.2091 8.79086 34 11 34C13.2091 34 15 32.2091 15 30C15 27.7909 13.2091 26 11 26C8.79086 26 7 27.7909 7 30Z" stroke="#02DFEE" stroke-width="4" stroke-linecap="square"/>
<path d="M6 74C6 76.7614 8.23858 79 11 79C13.7614 79 16 76.7614 16 74C16 71.2386 13.7614 69 11 69C8.23858 69 6 71.2386 6 74Z" stroke="#02DFEE" stroke-width="4" stroke-linecap="square"/>
<path d="M16 33C16 36.866 19.134 40 23 40C26.866 40 30 36.866 30 33C30 29.134 26.866 26 23 26C19.134 26 16 29.134 16 33Z" stroke="#02DFEE" stroke-width="4" stroke-linecap="square"/>
<path d="M16 33C16 36.866 19.134 40 23 40C26.866 40 30 36.866 30 33C30 29.134 26.866 26 23 26C19.134 26 16 29.134 16 33Z" stroke="#02DFEE" stroke-width="4" stroke-linecap="square"/>
<path d="M25 44C25 47.866 28.134 51 32 51C35.866 51 39 47.866 39 44C39 40.134 35.866 37 32 37C28.134 37 25 40.134 25 44Z" stroke="#02DFEE" stroke-width="4" stroke-linecap="square"/>
<path d="M2 51C2 54.866 5.13401 58 9 58C12.866 58 16 54.866 16 51C16 47.134 12.866 44 9 44C5.13401 44 2 47.134 2 51Z" stroke="#02DFEE" stroke-width="4" stroke-linecap="square"/>
<path d="M10 63.5C10 67.0899 12.9101 70 16.5 70C20.0899 70 23 67.0899 23 63.5C23 59.9101 20.0899 57 16.5 57C12.9101 57 10 59.9101 10 63.5Z" stroke="#02DFEE" stroke-width="4" stroke-linecap="square"/>
<path d="M34 21C34 24.866 37.134 28 41 28C44.866 28 48 24.866 48 21C48 17.134 44.866 14 41 14C37.134 14 34 17.134 34 21Z" stroke="#02DFEE" stroke-width="4" stroke-linecap="square"/>
<path d="M64 17C64 20.866 67.134 24 71 24C74.866 24 78 20.866 78 17C78 13.134 74.866 10 71 10C67.134 10 64 13.134 64 17Z" stroke="#02DFEE" stroke-width="4" stroke-linecap="square"/>
<path d="M78 17C78 19.2091 79.7909 21 82 21C84.2091 21 86 19.2091 86 17C86 14.7909 84.2091 13 82 13C79.7909 13 78 14.7909 78 17Z" stroke="#02DFEE" stroke-width="4" stroke-linecap="square"/>
<path d="M81 64C81 66.2091 82.7909 68 85 68C87.2091 68 89 66.2091 89 64C89 61.7909 87.2091 60 85 60C82.7909 60 81 61.7909 81 64Z" stroke="#02DFEE" stroke-width="4" stroke-linecap="square"/>
<path d="M75 36.5C75 38.9853 77.0147 41 79.5 41C81.9853 41 84 38.9853 84 36.5C84 34.0147 81.9853 32 79.5 32C77.0147 32 75 34.0147 75 36.5Z" stroke="#02DFEE" stroke-width="4" stroke-linecap="square"/>
<path d="M50 21C50 24.866 53.134 28 57 28C60.866 28 64 24.866 64 21C64 17.134 60.866 14 57 14C53.134 14 50 17.134 50 21Z" stroke="#02DFEE" stroke-width="4" stroke-linecap="square"/>
<path d="M62 31.5C62 35.0899 64.9101 38 68.5 38C72.0899 38 75 35.0899 75 31.5C75 27.9101 72.0899 25 68.5 25C64.9101 25 62 27.9101 62 31.5Z" stroke="#02DFEE" stroke-width="4" stroke-linecap="square"/>
<path d="M94 40C94 43.866 97.134 47 101 47C104.866 47 108 43.866 108 40C108 36.134 104.866 33 101 33C97.134 33 94 36.134 94 40Z" stroke="#02DFEE" stroke-width="4" stroke-linecap="square"/>
<path d="M85 52C85 55.866 88.134 59 92 59C95.866 59 99 55.866 99 52C99 48.134 95.866 45 92 45C88.134 45 85 48.134 85 52Z" stroke="#02DFEE" stroke-width="4" stroke-linecap="square"/>
<path d="M99 54C99 57.866 102.134 61 106 61C109.866 61 113 57.866 113 54C113 50.134 109.866 47 106 47C102.134 47 99 50.134 99 54Z" stroke="#02DFEE" stroke-width="4" stroke-linecap="square"/>
<path d="M42 8.5C42 12.0899 44.9101 15 48.5 15C52.0899 15 55 12.0899 55 8.5C55 4.91015 52.0899 2 48.5 2C44.9101 2 42 4.91015 42 8.5Z" stroke="#02DFEE" stroke-width="4" stroke-linecap="square"/>
</svg>
